<svg viewBox="0 0 26 16" xmlns="http://www.w3.org/2000/svg"><path d="m12.987234 13.7361702 12.8851064-8.03404254v2.1787234l-12.8851064 8.06808514-12.90212762-8.06808514v-2.1787234zm0-10.07659573c2.8936171 0 5.4638298 1.51489362 6.9617022 3.7106383l-1.8893617 1.20851063c-2.8425532-3.79574468-8.06808514-4.47659574-11.69361705-1.46382978-.11914894.08510638-.18723405.15319149-.30638298.27234042 1.46382979-2.26382978 4.01702123-3.72765957 6.92765953-3.72765957zm0 3.72765957c-1.5829787 0-2.9787234.8-3.81276591 1.95744681.68085106-.49361702 1.46382981-.74893617 2.29787231-.74893617 1.3957447 0 2.6382979.71489362 3.4723405 1.92340422l1.8042553-1.12340422c-.7829788-1.24255319-2.1787234-2.00851064-3.7617022-2.00851064m-8.71489357-3.2680851c5.31063829-4.18723405 12.81702127-3.04680851 16.81702127 2.51914893l.0340426.03404256 1.9574468-1.20851064c-2.1446809-3.28510639-5.8723405-5.46382979-10.0936171-5.46382979-4.187234 0-7.91489357 2.14468085-10.09361698 5.46382979.39148936-.44255319.88510638-.97021277 1.37872341-1.34468085"/></svg>